# xmcd
#
# Track frame offsets: 
#        150
#        16652
#        28869
#        37356
#        52917
#        61873
#        73696
#        88072
#        102071
#        116610
#        124634
#        133809
#        144815
#        156191
#        163359
#        185119
#
# Disc length: 2498 seconds
#
# Revision: 0
# Processed by: cddbd v1.5.2PL0 Copyright (c) Steve Scherf et al.
# Submitted via: ExactAudioCopy v1.0b3
#
DISCID=e009c010
DTITLE=Various Artist - I Got Rhythm - Stefan Grossman's Guitar Workshop
DYEAR=1976
DGENRE=Acoustic
TTITLE0=Ton Van Bergeyk - I Got Rhythm
TTITLE1=John James - Under the Moon
TTITLE2=Sam Mitchell - Sophisticated Slide
TTITLE3=Ton Van Bergeyk - Medley For the Duke: Jubilee Stomp-Take It E
TTITLE3=asy
TTITLE4=Ton Van Bergeyk - Anno 1926
TTITLE5=Dale Miller - Somewhere Over the Rainbow
TTITLE6=Ton Van Bergeyk - Sugar
TTITLE7=Ton Van Bergeyk - The Cat and the Dog
TTITLE8=John James - (Who's That) Knocking At My Door
TTITLE9=Ton Van Bergeyk - Frog-I-More Rag
TTITLE10=Sam Mitchell - Dirty Dozens
TTITLE11=Dale Miller - Ain't Misbehaving
TTITLE12=Ton Van Bergeyk - Stumblin'
TTITLE13=John James - Ballin' the Jack
TTITLE14=Dale Miller - These Foolish Things
TTITLE15=These Foolish Things
EXTD=
EXTT0=
EXTT1=
EXTT2=
EXTT3=
EXTT4=
EXTT5=
EXTT6=
EXTT7=
EXTT8=
EXTT9=
EXTT10=
EXTT11=
EXTT12=
EXTT13=
EXTT14=
EXTT15=
PLAYORDER=
